<svg xmlns="http://www.w3.org/2000/svg" viewBox="0 0 1200 675" role="img" aria-labelledby="title desc">
  <title id="title">boxddd Bevy testbed preview</title>
  <desc id="desc">A stylized 3D physics testbed scene with stacked blocks, a ray pick marker, and jointed bodies.</desc>
  <defs>
    <linearGradient id="sky" x1="0" x2="1" y1="0" y2="1">
      <stop offset="0" stop-color="#111827"/>
      <stop offset="0.48" stop-color="#182331"/>
      <stop offset="1" stop-color="#0f141b"/>
    </linearGradient>
    <linearGradient id="floor" x1="0" x2="1" y1="0" y2="0">
      <stop offset="0" stop-color="#1f2933"/>
      <stop offset="1" stop-color="#27343c"/>
    </linearGradient>
    <filter id="shadow" x="-20%" y="-20%" width="140%" height="140%">
      <feDropShadow dx="0" dy="18" stdDeviation="18" flood-color="#030712" flood-opacity="0.45"/>
    </filter>
  </defs>
  <rect width="1200" height="675" fill="url(#sky)"/>
  <path d="M0 505 610 338 1200 510 1200 675 0 675Z" fill="url(#floor)"/>
  <path d="M105 545 610 398 1095 548" fill="none" stroke="#3b4a54" stroke-width="3"/>
  <path d="M260 610 610 430 940 610" fill="none" stroke="#33404a" stroke-width="2"/>
  <g filter="url(#shadow)">
    <g transform="translate(390 272)">
      <path d="M0 178 68 145 68 211 0 246Z" fill="#2d6cdf"/>
      <path d="M68 145 136 178 136 246 68 211Z" fill="#1f55b8"/>
      <path d="M0 178 68 145 136 178 68 214Z" fill="#4b8bff"/>
    </g>
    <g transform="translate(466 232)">
      <path d="M0 178 68 145 68 211 0 246Z" fill="#2d6cdf"/>
      <path d="M68 145 136 178 136 246 68 211Z" fill="#1f55b8"/>
      <path d="M0 178 68 145 136 178 68 214Z" fill="#4b8bff"/>
    </g>
    <g transform="translate(540 194)">
      <path d="M0 178 68 145 68 211 0 246Z" fill="#2d6cdf"/>
      <path d="M68 145 136 178 136 246 68 211Z" fill="#1f55b8"/>
      <path d="M0 178 68 145 136 178 68 214Z" fill="#4b8bff"/>
    </g>
    <g transform="translate(655 333)">
      <circle cx="0" cy="0" r="44" fill="#f59e0b"/>
      <ellipse cx="0" cy="42" rx="58" ry="16" fill="#0a0f16" opacity="0.35"/>
    </g>
    <g stroke="#8bd3c7" stroke-width="9" stroke-linecap="round" fill="none">
      <path d="M790 270 846 322 892 380 938 442"/>
      <circle cx="790" cy="270" r="19" fill="#8bd3c7"/>
      <circle cx="846" cy="322" r="17" fill="#8bd3c7"/>
      <circle cx="892" cy="380" r="16" fill="#8bd3c7"/>
      <circle cx="938" cy="442" r="15" fill="#8bd3c7"/>
    </g>
  </g>
  <path d="M175 145 630 360" stroke="#f8d75e" stroke-width="5" stroke-dasharray="16 16"/>
  <circle cx="630" cy="360" r="14" fill="#f8d75e"/>
  <g fill="#d6dee7" font-family="ui-sans-serif, system-ui, sans-serif">
    <text x="70" y="86" font-size="34" font-weight="700">boxddd Bevy testbed</text>
    <text x="70" y="126" font-size="20" fill="#9fb2c3">Native 3D samples, debug draw, physics queries, and draggable bodies</text>
  </g>
</svg>
